<svg width="22" height="22" viewBox="0 0 22 22" fill="none" xmlns="http://www.w3.org/2000/svg">
<path d="M11 8.85714C11.1894 8.85714 11.3711 8.9324 11.5051 9.06635C11.639 9.20031 11.7143 9.38199 11.7143 9.57143V16C11.7143 16.1894 11.639 16.3711 11.5051 16.5051C11.3711 16.639 11.1894 16.7143 11 16.7143C10.8106 16.7143 10.6289 16.639 10.4949 16.5051C10.361 16.3711 10.2857 16.1894 10.2857 16V9.57143C10.2857 9.38199 10.361 9.20031 10.4949 9.06635C10.6289 8.9324 10.8106 8.85714 11 8.85714ZM11 7.42857C11.2842 7.42857 11.5567 7.31569 11.7576 7.11476C11.9585 6.91383 12.0714 6.6413 12.0714 6.35714C12.0714 6.07298 11.9585 5.80046 11.7576 5.59953C11.5567 5.3986 11.2842 5.28571 11 5.28571C10.7158 5.28571 10.4433 5.3986 10.2424 5.59953C10.0415 5.80046 9.92857 6.07298 9.92857 6.35714C9.92857 6.6413 10.0415 6.91383 10.2424 7.11476C10.4433 7.31569 10.7158 7.42857 11 7.42857ZM1 11C1 5.47714 5.47714 1 11 1C16.5229 1 21 5.47714 21 11C21 16.5229 16.5229 21 11 21C5.47714 21 1 16.5229 1 11ZM11 2.42857C6.26643 2.42857 2.42857 6.26643 2.42857 11C2.42857 15.7336 6.26643 19.5714 11 19.5714C15.7336 19.5714 19.5714 15.7336 19.5714 11C19.5714 6.26643 15.7336 2.42857 11 2.42857Z" fill="white"/>
</svg>
