<svg width="30" height="30" viewBox="0 0 30 30" fill="none" xmlns="http://www.w3.org/2000/svg">
<path d="M6.25 8.75H11.25C11.913 8.75 12.5489 9.01339 13.0178 9.48223C13.4866 9.95107 13.75 10.587 13.75 11.25V18.75C13.75 19.413 13.4866 20.0489 13.0178 20.5178C12.5489 20.9866 11.913 21.25 11.25 21.25H6.25V18.75H11.25V16.25H7.5V13.75H11.25V11.25H6.25V8.75ZM16.25 8.75H20C20.9946 8.75 21.9484 9.14509 22.6517 9.84835C23.3549 10.5516 23.75 11.5054 23.75 12.5V17.5C23.75 18.4946 23.3549 19.4484 22.6517 20.1517C21.9484 20.8549 20.9946 21.25 20 21.25H16.25V8.75ZM20 18.75C20.3315 18.75 20.6495 18.6183 20.8839 18.3839C21.1183 18.1495 21.25 17.8315 21.25 17.5V12.5C21.25 12.1685 21.1183 11.8505 20.8839 11.6161C20.6495 11.3817 20.3315 11.25 20 11.25H18.75V18.75H20Z" fill="black"/>
</svg>
